<svg>

<symbol id='download' width="48" height="42" viewBox="0 0 48 42" xmlns="http://www.w3.org/2000/svg">
<path d="M23.041 32.7911C23.4315 33.1816 24.0647 33.1816 24.4552 32.7911L30.8192 26.4271C31.2097 26.0366 31.2097 25.4034 30.8192 25.0129C30.4286 24.6224 29.7955 24.6224 29.405 25.0129L23.7481 30.6697L18.0913 25.0129C17.7007 24.6224 17.0676 24.6224 16.677 25.0129C16.2865 25.4034 16.2865 26.0366 16.677 26.4271L23.041 32.7911ZM22.7481 3.81472e-08L22.7481 32.084L24.7481 32.084L24.7481 -3.81476e-08L22.7481 3.81472e-08Z"/>
<line x1="46.4962" y1="41" x2="0.999992" y2="41" stroke="white" stroke-width="2" stroke-linecap="round"/>
</symbol>

<symbol id='arrow' viewBox="0 0 16 9" xmlns="http://www.w3.org/2000/svg">
<path d="M7.29289 8.70711C7.68341 9.09763 8.31657 9.09763 8.7071 8.70711L15.0711 2.34315C15.4616 1.95262 15.4616 1.31946 15.0711 0.928933C14.6805 0.538409 14.0474 0.538408 13.6568 0.928933L7.99999 6.58579L2.34314 0.928932C1.95261 0.538407 1.31945 0.538407 0.928925 0.928931C0.538401 1.31946 0.538401 1.95262 0.928925 2.34315L7.29289 8.70711ZM6.99999 7L6.99999 8L8.99999 8L8.99999 7L6.99999 7Z"/>
</symbol>

<symbol id='play' viewBox="0 0 38 41" fill="none" xmlns="http://www.w3.org/2000/svg">
<path d="M35.2444 16.1555C38.6108 18.0735 38.6108 22.9261 35.2444 24.8441L8.3805 40.15C5.04725 42.0491 0.90529 39.6419 0.905291 35.8056L0.905292 5.19398C0.905292 1.35767 5.04725 -1.0495 8.3805 0.849635L35.2444 16.1555Z" fill="white"/>
</symbol>


</svg>
